<svg xmlns="http://www.w3.org/2000/svg" xmlns:xlink="http://www.w3.org/1999/xlink" width="1024" zoomAndPan="magnify" viewBox="0 0 768 767.999994" height="1024" preserveAspectRatio="xMidYMid meet" version="1.0"><defs><clipPath id="6280e3cfc8"><path d="M 202.847656 167.835938 L 280.097656 167.835938 L 280.097656 245.085938 L 202.847656 245.085938 Z M 202.847656 167.835938 " clip-rule="nonzero"/></clipPath><clipPath id="bfee787927"><path d="M 0.871094 0 L 767.128906 0 L 767.128906 767.617188 L 0.871094 767.617188 Z M 0.871094 0 " clip-rule="nonzero"/></clipPath></defs><g clip-path="url(#6280e3cfc8)"><path fill="#00cc00" d="M 267.132812 245.085938 L 215.8125 245.085938 C 208.652344 245.085938 202.847656 239.28125 202.847656 232.121094 L 202.847656 180.800781 C 202.847656 173.636719 208.652344 167.835938 215.8125 167.835938 L 267.132812 167.835938 C 274.296875 167.835938 280.097656 173.636719 280.097656 180.800781 L 280.097656 232.121094 C 280.097656 239.28125 274.296875 245.085938 267.132812 245.085938 Z M 267.132812 245.085938 " fill-opacity="1" fill-rule="nonzero"/></g><path fill="#ffffff" d="M 268.695312 187.441406 C 266.699219 185.445312 263.445312 185.445312 261.449219 187.441406 L 234.261719 214.628906 L 221.632812 202.015625 C 219.636719 200.019531 216.382812 200.019531 214.386719 202.015625 C 212.390625 204.011719 212.390625 207.265625 214.386719 209.261719 L 230.4375 225.3125 C 230.488281 225.378906 230.554688 225.429688 230.621094 225.496094 C 231.628906 226.503906 232.9375 227.003906 234.246094 226.988281 C 235.554688 226.988281 236.878906 226.484375 237.867188 225.496094 C 237.933594 225.429688 237.984375 225.378906 238.050781 225.3125 L 268.695312 194.667969 C 270.707031 192.671875 270.707031 189.4375 268.695312 187.441406 Z M 268.695312 187.441406 " fill-opacity="1" fill-rule="nonzero"/><g clip-path="url(#bfee787927)"><path fill="#a684ff" d="M 379.851562 175.101562 C 404.816406 174.21875 425.769531 193.742188 426.722656 218.707031 C 426.722656 219.117188 426.722656 219.59375 426.722656 220 L 426.722656 341.222656 L 547.945312 341.222656 C 572.910156 341.222656 593.183594 361.496094 593.183594 386.460938 C 593.183594 411.429688 572.910156 431.699219 547.945312 431.699219 L 426.722656 431.699219 L 426.722656 552.925781 C 426.382812 577.890625 405.835938 597.890625 380.871094 597.550781 C 356.3125 597.210938 336.585938 577.414062 336.246094 552.925781 L 336.246094 431.699219 L 215.019531 431.699219 C 190.054688 431.699219 169.78125 411.429688 169.78125 386.460938 C 169.78125 361.496094 190.054688 341.222656 215.019531 341.222656 L 336.246094 341.222656 L 336.246094 220 C 336.382812 195.78125 355.632812 175.988281 379.851562 175.101562 Z M 373.457031 0.0664062 C 165.769531 5.78125 0.53125 175.917969 0.871094 383.671875 C 0.394531 595.238281 171.550781 767.210938 383.183594 767.617188 C 594.75 768.09375 766.652344 596.9375 767.128906 385.375 C 767.128906 384.828125 767.128906 384.21875 767.128906 383.671875 C 767.46875 172.109375 596.175781 0.273438 384.613281 -0.0664062 C 380.871094 -0.0664062 377.199219 -0.0664062 373.457031 0.0664062 " fill-opacity="1" fill-rule="nonzero"/></g></svg>