<svg xmlns="http://www.w3.org/2000/svg" xmlns:xlink="http://www.w3.org/1999/xlink" width="1024" zoomAndPan="magnify" viewBox="0 0 768 767.999994" height="1024" preserveAspectRatio="xMidYMid meet" version="1.0"><defs><clipPath id="5b53ec5a0d"><path d="M 265.128906 541.285156 L 342.378906 541.285156 L 342.378906 618.535156 L 265.128906 618.535156 Z M 265.128906 541.285156 " clip-rule="nonzero"/></clipPath></defs><g clip-path="url(#5b53ec5a0d)"><path fill="#00cc00" d="M 329.414062 618.535156 L 278.09375 618.535156 C 270.933594 618.535156 265.128906 612.730469 265.128906 605.570312 L 265.128906 554.246094 C 265.128906 547.085938 270.933594 541.285156 278.09375 541.285156 L 329.414062 541.285156 C 336.578125 541.285156 342.378906 547.085938 342.378906 554.246094 L 342.378906 605.570312 C 342.378906 612.730469 336.578125 618.535156 329.414062 618.535156 Z M 329.414062 618.535156 " fill-opacity="1" fill-rule="nonzero"/></g><path fill="#ffffff" d="M 330.976562 560.890625 C 328.980469 558.894531 325.726562 558.894531 323.730469 560.890625 L 296.542969 588.074219 L 283.914062 575.464844 C 281.917969 573.46875 278.664062 573.46875 276.667969 575.464844 C 274.671875 577.460938 274.671875 580.714844 276.667969 582.710938 L 292.71875 598.757812 C 292.769531 598.828125 292.835938 598.878906 292.902344 598.945312 C 293.910156 599.949219 295.21875 600.453125 296.527344 600.4375 C 297.835938 600.4375 299.160156 599.933594 300.148438 598.945312 C 300.214844 598.878906 300.265625 598.828125 300.332031 598.757812 L 330.976562 568.117188 C 332.988281 566.121094 332.988281 562.886719 330.976562 560.890625 Z M 330.976562 560.890625 " fill-opacity="1" fill-rule="nonzero"/><path fill="#ffffff" d="M 229.347656 665.496094 L 38.976562 489.769531 C 2.445312 456.046875 0.167969 399.09375 33.890625 362.5625 C 67.613281 326.03125 124.5625 323.753906 161.097656 357.476562 L 283.546875 470.503906 L 599.625 109.359375 C 632.371094 71.949219 689.242188 68.164062 726.652344 100.910156 C 764.058594 133.652344 767.847656 190.523438 735.105469 227.933594 L 358.148438 658.636719 C 324.789062 696.75 266.570312 699.847656 229.347656 665.496094 " fill-opacity="1" fill-rule="nonzero"/></svg>