<svg xmlns="http://www.w3.org/2000/svg" xmlns:xlink="http://www.w3.org/1999/xlink" width="1024" zoomAndPan="magnify" viewBox="0 0 768 767.999994" height="1024" preserveAspectRatio="xMidYMid meet" version="1.0"><defs><clipPath id="197c3f222c"><path d="M 345.199219 327.058594 L 422.449219 327.058594 L 422.449219 404.308594 L 345.199219 404.308594 Z M 345.199219 327.058594 " clip-rule="nonzero"/></clipPath><clipPath id="90488a9699"><path d="M 20.246094 615 L 172 615 L 172 766 L 20.246094 766 Z M 20.246094 615 " clip-rule="nonzero"/></clipPath></defs><g clip-path="url(#197c3f222c)"><path fill="#00cc00" d="M 409.484375 404.308594 L 358.164062 404.308594 C 351 404.308594 345.199219 398.507812 345.199219 391.34375 L 345.199219 340.023438 C 345.199219 332.863281 351 327.058594 358.164062 327.058594 L 409.484375 327.058594 C 416.644531 327.058594 422.449219 332.863281 422.449219 340.023438 L 422.449219 391.34375 C 422.449219 398.507812 416.644531 404.308594 409.484375 404.308594 Z M 409.484375 404.308594 " fill-opacity="1" fill-rule="nonzero"/></g><path fill="#ffffff" d="M 411.042969 346.667969 C 409.046875 344.671875 405.792969 344.671875 403.796875 346.667969 L 376.613281 373.851562 L 363.980469 361.242188 C 361.988281 359.246094 358.734375 359.246094 356.738281 361.242188 C 354.742188 363.238281 354.742188 366.488281 356.738281 368.484375 L 372.789062 384.535156 C 372.835938 384.601562 372.90625 384.652344 372.972656 384.722656 C 373.976562 385.726562 375.285156 386.230469 376.59375 386.214844 C 377.902344 386.214844 379.226562 385.710938 380.21875 384.722656 C 380.285156 384.652344 380.335938 384.601562 380.402344 384.535156 L 411.042969 353.894531 C 413.054688 351.898438 413.054688 348.660156 411.042969 346.667969 Z M 411.042969 346.667969 " fill-opacity="1" fill-rule="nonzero"/><g clip-path="url(#90488a9699)"><path fill="#ffffff" d="M 24.835938 615.074219 L 20.789062 765.703125 L 171.011719 752.070312 L 97.855469 683.636719 Z M 24.835938 615.074219 " fill-opacity="1" fill-rule="nonzero"/></g><path fill="#ffffff" d="M 31.289062 583.9375 L 525.046875 57.585938 L 695.25 217.246094 L 201.488281 743.597656 Z M 31.289062 583.9375 " fill-opacity="1" fill-rule="nonzero"/><path fill="#ffffff" d="M 699.15625 42.519531 C 697.875 41.332031 696.5625 40.167969 695.230469 39.039062 C 693.894531 37.90625 692.53125 36.808594 691.148438 35.738281 C 689.761719 34.667969 688.355469 33.628906 686.921875 32.621094 C 685.492188 31.613281 684.039062 30.640625 682.5625 29.699219 C 681.085938 28.753906 679.59375 27.847656 678.074219 26.972656 C 676.558594 26.097656 675.023438 25.257812 673.472656 24.453125 C 671.917969 23.644531 670.347656 22.875 668.757812 22.140625 C 667.171875 21.40625 665.566406 20.707031 663.945312 20.042969 C 662.328125 19.378906 660.691406 18.753906 659.046875 18.164062 C 657.398438 17.570312 655.738281 17.019531 654.066406 16.503906 C 652.390625 15.988281 650.707031 15.511719 649.015625 15.070312 C 647.320312 14.628906 645.617188 14.230469 643.90625 13.863281 C 642.195312 13.5 640.472656 13.175781 638.746094 12.890625 C 637.019531 12.605469 635.289062 12.355469 633.550781 12.148438 C 631.8125 11.9375 630.070312 11.769531 628.324219 11.636719 C 626.582031 11.507812 624.832031 11.417969 623.082031 11.363281 C 621.335938 11.3125 619.585938 11.300781 617.835938 11.324219 C 616.085938 11.351562 614.335938 11.417969 612.589844 11.523438 C 610.839844 11.625 609.097656 11.769531 607.355469 11.953125 C 605.617188 12.136719 603.878906 12.359375 602.148438 12.621094 C 600.417969 12.878906 598.695312 13.179688 596.976562 13.519531 C 595.261719 13.855469 593.550781 14.234375 591.851562 14.648438 C 590.152344 15.0625 588.460938 15.515625 586.78125 16.007812 C 585.101562 16.496094 583.433594 17.027344 581.777344 17.589844 C 580.121094 18.15625 578.476562 18.761719 576.847656 19.398438 C 575.21875 20.039062 573.605469 20.714844 572.003906 21.425781 C 570.40625 22.136719 568.824219 22.886719 567.257812 23.667969 C 565.695312 24.449219 564.148438 25.269531 562.617188 26.121094 C 561.089844 26.972656 559.582031 27.859375 558.089844 28.777344 C 556.601562 29.699219 555.132812 30.652344 553.6875 31.636719 C 552.242188 32.621094 550.820312 33.640625 549.417969 34.691406 C 548.015625 35.738281 546.640625 36.820312 545.289062 37.929688 L 713.195312 197.0625 C 714.242188 195.640625 715.257812 194.191406 716.238281 192.722656 C 717.21875 191.253906 718.167969 189.761719 719.082031 188.25 C 719.996094 186.738281 720.875 185.203125 721.722656 183.652344 C 722.566406 182.101562 723.375 180.527344 724.148438 178.941406 C 724.921875 177.351562 725.660156 175.746094 726.359375 174.121094 C 727.0625 172.5 727.726562 170.863281 728.351562 169.210938 C 728.980469 167.558594 729.566406 165.890625 730.121094 164.210938 C 730.671875 162.53125 731.183594 160.839844 731.660156 159.136719 C 732.132812 157.4375 732.570312 155.722656 732.964844 154 C 733.363281 152.277344 733.71875 150.546875 734.039062 148.808594 C 734.359375 147.070312 734.636719 145.328125 734.875 143.574219 C 735.117188 141.824219 735.316406 140.066406 735.476562 138.308594 C 735.636719 136.546875 735.753906 134.785156 735.835938 133.019531 C 735.914062 131.253906 735.957031 129.488281 735.957031 127.71875 C 735.957031 125.953125 735.914062 124.183594 735.835938 122.417969 C 735.757812 120.652344 735.636719 118.890625 735.476562 117.128906 C 735.316406 115.371094 735.117188 113.613281 734.878906 111.863281 C 734.636719 110.113281 734.359375 108.367188 734.039062 106.628906 C 733.722656 104.890625 733.363281 103.160156 732.96875 101.4375 C 732.570312 99.714844 732.132812 98.003906 731.660156 96.300781 C 731.183594 94.597656 730.671875 92.90625 730.121094 91.226562 C 729.570312 89.546875 728.980469 87.882812 728.355469 86.230469 C 727.726562 84.578125 727.066406 82.9375 726.363281 81.316406 C 725.664062 79.691406 724.925781 78.085938 724.152344 76.5 C 723.378906 74.910156 722.570312 73.339844 721.722656 71.785156 C 720.878906 70.234375 720 68.699219 719.085938 67.1875 C 718.171875 65.675781 717.222656 64.183594 716.242188 62.714844 C 715.261719 61.246094 714.246094 59.796875 713.199219 58.375 C 712.152344 56.949219 711.070312 55.550781 709.960938 54.175781 C 708.851562 52.800781 707.707031 51.453125 706.535156 50.128906 C 705.363281 48.804688 704.164062 47.507812 702.933594 46.242188 C 701.703125 44.972656 700.445312 43.730469 699.15625 42.519531 Z M 699.15625 42.519531 " fill-opacity="1" fill-rule="nonzero"/></svg>