<svg xmlns="http://www.w3.org/2000/svg" xmlns:xlink="http://www.w3.org/1999/xlink" width="1024" zoomAndPan="magnify" viewBox="0 0 768 767.999994" height="1024" preserveAspectRatio="xMidYMid meet" version="1.0"><defs><clipPath id="50030b1f44"><path d="M 202.847656 167.835938 L 280.097656 167.835938 L 280.097656 245.085938 L 202.847656 245.085938 Z M 202.847656 167.835938 " clip-rule="nonzero"/></clipPath><clipPath id="87647756c5"><path d="M 110.878906 0 L 656.878906 0 L 656.878906 152 L 110.878906 152 Z M 110.878906 0 " clip-rule="nonzero"/></clipPath></defs><g clip-path="url(#50030b1f44)"><path fill="#00cc00" d="M 267.132812 245.085938 L 215.8125 245.085938 C 208.652344 245.085938 202.847656 239.28125 202.847656 232.121094 L 202.847656 180.800781 C 202.847656 173.636719 208.652344 167.835938 215.8125 167.835938 L 267.132812 167.835938 C 274.296875 167.835938 280.097656 173.636719 280.097656 180.800781 L 280.097656 232.121094 C 280.097656 239.28125 274.296875 245.085938 267.132812 245.085938 Z M 267.132812 245.085938 " fill-opacity="1" fill-rule="nonzero"/></g><path fill="#ffffff" d="M 268.695312 187.441406 C 266.699219 185.445312 263.445312 185.445312 261.449219 187.441406 L 234.261719 214.628906 L 221.632812 202.015625 C 219.636719 200.019531 216.382812 200.019531 214.386719 202.015625 C 212.390625 204.011719 212.390625 207.265625 214.386719 209.261719 L 230.4375 225.3125 C 230.488281 225.378906 230.554688 225.429688 230.621094 225.496094 C 231.628906 226.503906 232.9375 227.003906 234.246094 226.988281 C 235.554688 226.988281 236.878906 226.484375 237.867188 225.496094 C 237.933594 225.429688 237.984375 225.378906 238.050781 225.3125 L 268.695312 194.667969 C 270.707031 192.671875 270.707031 189.4375 268.695312 187.441406 Z M 268.695312 187.441406 " fill-opacity="1" fill-rule="nonzero"/><path fill="#ffffff" d="M 340.324219 164.605469 L 132.367188 164.605469 L 178.121094 767.679688 L 589.875 767.679688 L 635.625 164.605469 Z M 340.324219 164.605469 " fill-opacity="1" fill-rule="nonzero"/><g clip-path="url(#87647756c5)"><path fill="#ffffff" d="M 623.148438 83.5 L 501.144531 83.5 L 469.257812 0.320312 L 297.347656 0.320312 L 265.460938 83.5 L 144.847656 83.5 L 110.878906 116.773438 L 110.878906 151.433594 L 657.113281 151.433594 L 657.113281 116.773438 Z M 371.519531 83.5 L 289.03125 83.5 L 312.597656 21.113281 L 455.394531 21.113281 L 478.964844 83.5 Z M 371.519531 83.5 " fill-opacity="1" fill-rule="nonzero"/></g></svg>